<svg xmlns="http://www.w3.org/2000/svg" version="1.1" xmlns:xlink="http://www.w3.org/1999/xlink" xmlns:svgjs="http://svgjs.dev/svgjs" width="2000" height="1247" viewBox="0 0 2000 1247"><g transform="matrix(1,0,0,1,-1.2121212121212466,244.0903404081298)"><svg viewBox="0 0 396 247" data-background-color="#ffffff" preserveAspectRatio="xMidYMid meet" height="1247" width="2000" xmlns="http://www.w3.org/2000/svg" xmlns:xlink="http://www.w3.org/1999/xlink"><g id="tight-bounds" transform="matrix(1,0,0,1,0.2400000000000091,-0.09999999999999432)"><svg viewBox="0 0 395.52 247.2" height="247.2" width="395.52"><g><svg></svg></g><g><svg viewBox="0 0 395.52 247.2" height="247.2" width="395.52"><g transform="matrix(1,0,0,1,75.54432,56.125256736194586)"><svg viewBox="0 0 244.43135999999998 134.94948652761082" height="134.94948652761082" width="244.43135999999998"><g><svg viewBox="0 0 244.43135999999998 134.94948652761082" height="134.94948652761082" width="244.43135999999998"><g transform="matrix(1,0,0,1,0,96.72632754774504)"><svg viewBox="0 0 244.43135999999998 38.223158979865765" height="38.223158979865765" width="244.43135999999998"><g id="textblocktransform"><svg viewBox="0 0 244.43135999999998 38.223158979865765" height="38.223158979865765" width="244.43135999999998" id="textblock"><g><svg viewBox="0 0 244.43135999999998 38.223158979865765" height="38.223158979865765" width="244.43135999999998"><g transform="matrix(1,0,0,1,0,0)"><svg width="244.43135999999998" viewBox="2.6 -36.45 302.12 46.6" height="38.223158979865765" data-palette-color="#c1e8ff"><g class="wordmark-text-0" data-fill-palette-color="primary" id="text-0"><path d="M21.6 0L2.6 0 2.6-5.25 9.1-5.25 9.1-29.75 2.6-29.75 2.6-35 21.6-35 21.6-29.75 15.1-29.75 15.1-5.25 21.6-5.25 21.6 0ZM33.4 0L27.65 0 27.65-14.7Q27.65-18 29.15-20.58 30.65-23.15 33.4-24.63 36.15-26.1 39.85-26.1L39.85-26.1Q43.55-26.1 46.27-24.63 49-23.15 50.5-20.58 52-18 52-14.7L52-14.7 52 0 46.3 0 46.3-14.65Q46.3-16.6 45.4-18.07 44.5-19.55 43.02-20.38 41.55-21.2 39.8-21.2L39.8-21.2Q38.1-21.2 36.62-20.38 35.15-19.55 34.27-18.07 33.4-16.6 33.4-14.65L33.4-14.65 33.4 0ZM69.85 0.6L69.85 0.6Q67.85 0.6 66.27-0.5 64.7-1.6 64-3.45L64-3.45 56.2-25.5 62.45-25.5 69.1-5.7Q69.25-5.35 69.45-5.2 69.65-5.05 69.9-5.05L69.9-5.05Q70.15-5.05 70.37-5.2 70.6-5.35 70.7-5.7L70.7-5.7 77.4-25.5 83.55-25.5 75.7-3.45Q75.05-1.6 73.45-0.5 71.85 0.6 69.85 0.6ZM107.49 0L100.64 0Q96.34 0 93.12-1.63 89.89-3.25 88.09-6.13 86.29-9 86.29-12.75L86.29-12.75Q86.29-16.7 87.89-19.7 89.49-22.7 92.29-24.4 95.09-26.1 98.74-26.1L98.74-26.1Q102.84-26.1 105.49-24.35 108.14-22.6 109.42-19.65 110.69-16.7 110.69-13.05L110.69-13.05Q110.69-12.55 110.64-11.9 110.59-11.25 110.49-10.9L110.49-10.9 92.39-10.9Q92.69-8.9 93.84-7.58 94.99-6.25 96.74-5.58 98.49-4.9 100.64-4.9L100.64-4.9 107.49-4.9 107.49 0ZM92.34-14.8L92.34-14.8 104.94-14.8Q104.89-15.75 104.67-16.7 104.44-17.65 103.97-18.5 103.49-19.35 102.77-19.98 102.04-20.6 101.04-20.98 100.04-21.35 98.74-21.35L98.74-21.35Q97.24-21.35 96.09-20.78 94.94-20.2 94.14-19.28 93.34-18.35 92.92-17.18 92.49-16 92.34-14.8ZM128.84 0L115.94 0 115.94-4.9 128.24-4.9Q129.14-4.9 129.82-5.3 130.49-5.7 130.87-6.35 131.24-7 131.24-7.7L131.24-7.7Q131.24-8.5 130.89-9.1 130.54-9.7 129.89-10.08 129.24-10.45 128.39-10.45L128.39-10.45 123.39-10.45Q120.94-10.45 119.04-11.25 117.14-12.05 116.04-13.73 114.94-15.4 114.94-17.95L114.94-17.95Q114.94-20 115.97-21.7 116.99-23.4 118.74-24.45 120.49-25.5 122.69-25.5L122.69-25.5 134.54-25.5 134.54-20.6 123.24-20.6Q122.09-20.6 121.34-19.88 120.59-19.15 120.59-18.1L120.59-18.1Q120.59-17.1 121.34-16.35 122.09-15.6 123.34-15.6L123.34-15.6 128.19-15.6Q130.94-15.6 132.89-14.75 134.84-13.9 135.87-12.2 136.89-10.5 136.89-7.9L136.89-7.9Q136.89-5.8 135.84-3.98 134.79-2.15 132.97-1.07 131.14 0 128.84 0L128.84 0ZM157.74 0L151.39 0Q147.99 0 146.06-1.95 144.14-3.9 144.14-7.25L144.14-7.25 144.14-31.9 149.84-31.9 149.84-7.5Q149.84-6.35 150.54-5.63 151.24-4.9 152.39-4.9L152.39-4.9 157.74-4.9 157.74 0ZM157.79-20.6L139.74-20.6 139.74-25.5 157.79-25.5 157.79-20.6ZM168.94 0L163.19 0 163.19-25.5 168.94-25.5 168.94 0ZM166.04-29.05L166.04-29.05Q164.54-29.05 163.44-30.15 162.34-31.25 162.34-32.75L162.34-32.75Q162.34-34.25 163.44-35.35 164.54-36.45 166.04-36.45L166.04-36.45Q167.59-36.45 168.66-35.35 169.74-34.25 169.74-32.75L169.74-32.75Q169.74-31.25 168.66-30.15 167.59-29.05 166.04-29.05ZM193.53 10.15L179.68 10.15 179.68 5.25 192.48 5.25Q193.78 5.25 194.51 4.45 195.23 3.65 195.23 2.45L195.23 2.45 195.23-4.15 195.18-4.15Q194.08-2.8 192.83-1.83 191.58-0.85 190.01-0.33 188.43 0.2 186.53 0.2L186.53 0.2Q183.03 0.2 180.28-1.45 177.53-3.1 175.96-6.08 174.38-9.05 174.38-12.9L174.38-12.9Q174.38-16.65 175.96-19.63 177.53-22.6 180.48-24.35 183.43-26.1 187.68-26.1L187.68-26.1Q191.73-26.1 194.71-24.4 197.68-22.7 199.33-19.63 200.98-16.55 200.98-12.45L200.98-12.45 200.98 2.7Q200.98 6.15 198.98 8.15 196.98 10.15 193.53 10.15L193.53 10.15ZM187.63-4.7L187.63-4.7Q189.93-4.7 191.61-5.78 193.28-6.85 194.21-8.68 195.13-10.5 195.13-12.75L195.13-12.75Q195.13-15.15 194.23-17.05 193.33-18.95 191.66-20.08 189.98-21.2 187.63-21.2L187.63-21.2Q185.33-21.2 183.66-20.08 181.98-18.95 181.08-17.07 180.18-15.2 180.18-12.85L180.18-12.85Q180.18-10.6 181.08-8.75 181.98-6.9 183.66-5.8 185.33-4.7 187.63-4.7ZM218.03 0.6L218.03 0.6Q214.38 0.6 211.73-1.2 209.08-3 207.66-6.03 206.23-9.05 206.23-12.7L206.23-12.7Q206.23-16.5 207.86-19.53 209.48-22.55 212.51-24.33 215.53-26.1 219.73-26.1L219.73-26.1Q223.88-26.1 226.81-24.33 229.73-22.55 231.31-19.53 232.88-16.5 232.88-12.8L232.88-12.8 232.88 0 227.13 0 227.13-4.75 227.03-4.75Q226.28-3.35 225.08-2.13 223.88-0.9 222.13-0.15 220.38 0.6 218.03 0.6ZM219.58-4.3L219.58-4.3Q221.83-4.3 223.51-5.43 225.18-6.55 226.13-8.47 227.08-10.4 227.03-12.8L227.03-12.8Q227.03-15.2 226.13-17.07 225.23-18.95 223.58-20.08 221.93-21.2 219.63-21.2L219.63-21.2Q217.23-21.2 215.53-20.08 213.83-18.95 212.93-17.05 212.03-15.15 212.03-12.75L212.03-12.75Q212.03-10.4 212.93-8.47 213.83-6.55 215.51-5.43 217.18-4.3 219.58-4.3ZM254.93 0L248.58 0Q245.18 0 243.25-1.95 241.33-3.9 241.33-7.25L241.33-7.25 241.33-31.9 247.03-31.9 247.03-7.5Q247.03-6.35 247.73-5.63 248.43-4.9 249.58-4.9L249.58-4.9 254.93-4.9 254.93 0ZM254.98-20.6L236.93-20.6 236.93-25.5 254.98-25.5 254.98-20.6ZM272.53 0.6L272.53 0.6Q268.57 0.6 265.53-1.18 262.48-2.95 260.7-5.98 258.93-9 258.93-12.75L258.93-12.75Q258.93-16.5 260.7-19.53 262.48-22.55 265.53-24.33 268.57-26.1 272.53-26.1L272.53-26.1Q276.43-26.1 279.48-24.33 282.53-22.55 284.3-19.53 286.07-16.5 286.07-12.75L286.07-12.75Q286.07-9 284.3-5.98 282.53-2.95 279.48-1.18 276.43 0.6 272.53 0.6ZM272.53-4.3L272.53-4.3Q274.88-4.3 276.63-5.43 278.38-6.55 279.32-8.47 280.28-10.4 280.28-12.75L280.28-12.75Q280.28-15.1 279.32-17.03 278.38-18.95 276.63-20.08 274.88-21.2 272.53-21.2L272.53-21.2Q270.13-21.2 268.4-20.08 266.68-18.95 265.7-17.03 264.73-15.1 264.73-12.75L264.73-12.75Q264.73-10.4 265.7-8.47 266.68-6.55 268.4-5.43 270.13-4.3 272.53-4.3ZM297.07 0L291.32 0 291.32-18.25Q291.32-21.65 293.25-23.58 295.17-25.5 298.57-25.5L298.57-25.5 304.72-25.5 304.72-20.6 299.62-20.6Q298.42-20.6 297.75-19.9 297.07-19.2 297.07-18L297.07-18 297.07 0Z" fill="#c1e8ff" data-fill-palette-color="primary"></path></g></svg></g></svg></g></svg></g></svg></g><g transform="matrix(1,0,0,1,82.87608670545826,0)"><svg viewBox="0 0 78.67918658908346 78.67918658908346" height="78.67918658908346" width="78.67918658908346"><g><svg></svg></g><g id="icon-0"><svg viewBox="0 0 78.67918658908346 78.67918658908346" height="78.67918658908346" width="78.67918658908346"><g><path d="M0 39.34c0-21.727 17.613-39.34 39.34-39.34 21.727 0 39.34 17.613 39.339 39.34 0 21.727-17.613 39.34-39.339 39.339-21.727 0-39.34-17.613-39.34-39.339zM39.34 75.232c19.823 0 35.893-16.07 35.892-35.892 0-19.823-16.07-35.893-35.892-35.893-19.823 0-35.893 16.07-35.893 35.893 0 19.823 16.07 35.893 35.893 35.892z" data-fill-palette-color="accent" fill="#c1e8ff" stroke="transparent"></path></g><g transform="matrix(1,0,0,1,16.966954232552958,23.671189371358583)"><svg viewBox="0 0 44.74527812397754 31.33680784636629" height="31.33680784636629" width="44.74527812397754"><g><svg xmlns="http://www.w3.org/2000/svg" xmlns:xlink="http://www.w3.org/1999/xlink" version="1.1" x="0" y="0" viewBox="2 16.859 95.334 66.76599999999999" enable-background="new 0 0 100 100" xml:space="preserve" height="31.33680784636629" width="44.74527812397754" class="icon-cg-0" data-fill-palette-color="accent" id="cg-0"><g fill="#c1e8ff" data-fill-palette-color="accent"><path d="M71.546 26.437L71.546 26.437l-4.908-9.578H32.695l-4.908 9.578 0 0H2v56.331h30.89v-0.072c-3.427-2.495-6.281-5.729-8.316-9.476H11.548l0 0V35.985l0 0h22.075l4.908-9.578 0 0h22.271l0 0 4.909 9.578h22.074l0 0v37.234l0 0H74.759c-2.035 3.747-4.889 6.981-8.315 9.476v0.072h30.89V26.437H71.546z" fill="#c1e8ff" data-fill-palette-color="accent"></path><path d="M73.676 59.616c0-13.239-10.771-24.01-24.009-24.01-13.239 0-24.009 10.771-24.009 24.01 0 13.239 10.77 24.009 24.009 24.009C62.905 83.625 73.676 72.855 73.676 59.616zM49.667 74.077c-7.974 0-14.462-6.488-14.462-14.461s6.488-14.461 14.462-14.461c7.974 0 14.461 6.487 14.461 14.461S57.641 74.077 49.667 74.077z" fill="#c1e8ff" data-fill-palette-color="accent"></path></g></svg></g></svg></g></svg></g></svg></g><g></g></svg></g></svg></g><g><path d="M102.446 47.102A122.216 122.216 0 0 1 293.074 47.102L289.627 47.102A118.769 118.769 0 0 0 105.893 47.102L102.446 47.102M102.446 200.098A122.216 122.216 0 0 0 293.074 200.098L289.627 200.098A118.769 118.769 0 0 1 105.893 200.098L102.446 200.098" fill="#c1e8ff" stroke="transparent" data-fill-palette-color="tertiary"></path></g></svg></g><defs></defs></svg><rect width="395.52" height="247.2" fill="none" stroke="none" visibility="hidden"></rect></g></svg></g></svg>