<svg xmlns="http://www.w3.org/2000/svg" version="1.1" xmlns:xlink="http://www.w3.org/1999/xlink" xmlns:svgjs="http://svgjs.dev/svgjs" width="2000" height="292" viewBox="0 0 2000 292"><g transform="matrix(1,0,0,1,-1.2121212121212466,1.2312304930231903)"><svg viewBox="0 0 396 58" data-background-color="#ffffff" preserveAspectRatio="xMidYMid meet" height="292" width="2000" xmlns="http://www.w3.org/2000/svg" xmlns:xlink="http://www.w3.org/1999/xlink"><g id="tight-bounds" transform="matrix(1,0,0,1,0.2400000000000091,-0.24455948149091)"><svg viewBox="0 0 395.52 58.488928207007916" height="58.488928207007916" width="395.52"><g><svg viewBox="0 0 498.7927880819063 73.76075943642782" height="58.488928207007916" width="395.52"><g transform="matrix(1,0,0,1,103.2727880819063,5.627701930680988)"><svg viewBox="0 0 395.52 62.50535557506584" height="62.50535557506584" width="395.52"><g id="textblocktransform"><svg viewBox="0 0 395.52 62.50535557506584" height="62.50535557506584" width="395.52" id="textblock"><g><svg viewBox="0 0 395.52 62.50535557506584" height="62.50535557506584" width="395.52"><g transform="matrix(1,0,0,1,0,0)"><svg width="395.52" viewBox="4.95 -35 284.72 45" height="62.50535557506584" data-palette-color="#03424c"><g class="wordmark-text-0" data-fill-palette-color="primary" id="text-0"><path d="M6.45-35L6.45 0 4.95 0 4.95-35 6.45-35ZM17.65 0L16.15 0 16.15-29 17.65-29 33.95-2.75 33.95-29 35.45-29 35.45 0 33.95 0 17.65-26.3 17.65 0ZM64.5-29L66.1-29 53.6 0.5 41.1-29 42.7-29 53.6-3.35 64.5-29ZM90.04-3.95L91.14-2.95Q88.39 0.5 82.14 0.5 75.89 0.5 73.19-3.05 70.49-6.6 70.49-14.5 70.49-22.4 73.19-25.95 75.89-29.5 82.14-29.5L82.14-29.5Q89.39-29.5 91.99-24.75L91.99-24.75 79.74-14.5 77.39-14.5 90.04-25.05Q87.84-28 82.14-28L82.14-28Q79.64-28 77.94-27.48 76.24-26.95 74.82-25.53 73.39-24.1 72.69-21.38 71.99-18.65 71.99-14.5 71.99-10.35 72.69-7.63 73.39-4.9 74.82-3.48 76.24-2.05 77.94-1.53 79.64-1 82.14-1L82.14-1Q87.84-1 90.04-3.95L90.04-3.95ZM106.79-29.6L106.79-29.6Q112.99-29.6 115.59-26.85L115.59-26.85 114.59-25.75Q112.19-28.1 106.99-28.1L106.99-28.1Q99.19-28.1 99.19-21.9L99.19-21.9Q99.19-19.5 101.09-18.07 102.99-16.65 105.72-15.9 108.44-15.15 111.17-14.33 113.89-13.5 115.79-11.68 117.69-9.85 117.69-6.9L117.69-6.9Q117.69-3.45 114.84-1.4 111.99 0.65 106.59 0.65L106.59 0.65Q103.94 0.65 101.37-0.05 98.79-0.75 97.54-2.1L97.54-2.1 98.54-3.2Q101.09-0.85 106.39-0.85L106.39-0.85Q111.24-0.85 113.72-2.65 116.19-4.45 116.19-6.85L116.19-6.85Q116.19-9.35 114.29-10.9 112.39-12.45 109.67-13.23 106.94-14 104.22-14.83 101.49-15.65 99.59-17.4 97.69-19.15 97.69-22L97.69-22Q97.69-25.85 100.27-27.73 102.84-29.6 106.79-29.6ZM121.24-29L143.74-29 143.74-27.5 133.24-27.5 133.24 0 131.74 0 131.74-27.5 121.24-27.5 121.24-29ZM149.49 0L149.49-29 150.99-29 150.99 0 149.49 0ZM174.48-19.5L172.13-19.5 178.78-25.05Q176.58-28 170.88-28L170.88-28Q168.38-28 166.68-27.48 164.98-26.95 163.56-25.53 162.13-24.1 161.43-21.38 160.73-18.65 160.73-14.5 160.73-10.35 161.43-7.63 162.13-4.9 163.56-3.48 164.98-2.05 166.68-1.53 168.38-1 170.88-1L170.88-1Q176.53-1 178.73-3.9L178.73-3.9 178.73-12.75 180.23-12.75 180.23 0.45Q180.23 10 171.48 10L171.48 10 165.63 10 165.63 8.5 171.48 8.5Q175.23 8.5 176.98 6.53 178.73 4.55 178.73-1L178.73-1 178.73-1.75Q176.03 0.5 170.88 0.5L170.88 0.5Q164.63 0.5 161.93-3.05 159.23-6.6 159.23-14.5 159.23-22.4 161.93-25.95 164.63-29.5 170.88-29.5L170.88-29.5Q178.13-29.5 180.73-24.75L180.73-24.75 174.48-19.5ZM191.63 0L191.63-1.5 207.93-1.5 197.68-25.65 186.78 0 185.18 0 197.68-29.5 210.18 0 191.63 0ZM212.13-29L234.63-29 234.63-27.5 224.13-27.5 224.13 0 222.63 0 222.63-27.5 212.13-27.5 212.13-29ZM254.98-27.48Q253.28-28 250.78-28 248.28-28 246.58-27.48 244.88-26.95 243.45-25.53 242.03-24.1 241.33-21.38 240.63-18.65 240.63-14.5 240.63-10.35 241.33-7.63 242.03-4.9 243.45-3.48 244.88-2.05 246.58-1.53 248.28-1 250.78-1 253.28-1 254.98-1.53 256.68-2.05 258.1-3.48 259.53-4.9 260.23-7.63 260.93-10.35 260.93-14.5 260.93-18.65 260.23-21.38 259.53-24.1 258.1-25.53 256.68-26.95 254.98-27.48ZM259.73-3.05Q257.03 0.5 250.78 0.5 244.53 0.5 241.83-3.05 239.13-6.6 239.13-14.5 239.13-22.4 241.83-25.95 244.53-29.5 250.78-29.5 257.03-29.5 259.73-25.95 262.43-22.4 262.43-14.5 262.43-6.6 259.73-3.05ZM282.87-14.55L282.87-14.55 289.67 0 288.02 0 281.02-15Q281.12-15.05 281.9-15.43 282.67-15.8 282.97-15.98 283.27-16.15 283.97-16.6 284.67-17.05 285.02-17.48 285.37-17.9 285.8-18.48 286.22-19.05 286.42-19.78 286.62-20.5 286.62-21.35L286.62-21.35Q286.62-24.5 283.62-26 280.62-27.5 276.17-27.5L276.17-27.5 272.17-27.5 272.17 0 270.67 0 270.67-29 276.17-29Q282.07-29 285.1-26.95 288.12-24.9 288.12-21.35L288.12-21.35Q288.12-19.05 286.57-17.28 285.02-15.5 282.87-14.55Z" fill="#03424c" data-fill-palette-color="primary"></path></g></svg></g></svg></g></svg></g></svg></g><g><svg viewBox="0 0 73.76075943642782 73.76075943642782" height="73.76075943642782" width="73.76075943642782"><g><svg></svg></g><g id="icon-0"><svg viewBox="0 0 73.76075943642782 73.76075943642782" height="73.76075943642782" width="73.76075943642782"><g><path d="M0 36.88c0-20.368 16.512-36.88 36.88-36.88 20.368 0 36.88 16.512 36.881 36.88 0 20.368-16.512 36.88-36.881 36.881-20.368 0-36.88-16.512-36.88-36.881zM36.88 68.124c17.255 0 31.244-13.988 31.244-31.244 0-17.255-13.988-31.244-31.244-31.243-17.255 0-31.244 13.988-31.243 31.243 0 17.255 13.988 31.244 31.243 31.244z" data-fill-palette-color="accent" fill="#317185" stroke="transparent"></path></g><g transform="matrix(1,0,0,1,17.680587376400606,23.434040159467745)"><svg viewBox="0 0 38.39958468362661 26.892679117492328" height="26.892679117492328" width="38.39958468362661"><g><svg xmlns="http://www.w3.org/2000/svg" xmlns:xlink="http://www.w3.org/1999/xlink" version="1.1" x="0" y="0" viewBox="2 16.859 95.334 66.76599999999999" enable-background="new 0 0 100 100" xml:space="preserve" height="26.892679117492328" width="38.39958468362661" class="icon-cg-0" data-fill-palette-color="accent" id="cg-0"><g fill="#317185" data-fill-palette-color="accent"><path d="M71.546 26.437L71.546 26.437l-4.908-9.578H32.695l-4.908 9.578 0 0H2v56.331h30.89v-0.072c-3.427-2.495-6.281-5.729-8.316-9.476H11.548l0 0V35.985l0 0h22.075l4.908-9.578 0 0h22.271l0 0 4.909 9.578h22.074l0 0v37.234l0 0H74.759c-2.035 3.747-4.889 6.981-8.315 9.476v0.072h30.89V26.437H71.546z" fill="#317185" data-fill-palette-color="accent"></path><path d="M73.676 59.616c0-13.239-10.771-24.01-24.009-24.01-13.239 0-24.009 10.771-24.009 24.01 0 13.239 10.77 24.009 24.009 24.009C62.905 83.625 73.676 72.855 73.676 59.616zM49.667 74.077c-7.974 0-14.462-6.488-14.462-14.461s6.488-14.461 14.462-14.461c7.974 0 14.461 6.487 14.461 14.461S57.641 74.077 49.667 74.077z" fill="#317185" data-fill-palette-color="accent"></path></g></svg></g></svg></g></svg></g></svg></g></svg></g><defs></defs></svg><rect width="395.52" height="58.488928207007916" fill="none" stroke="none" visibility="hidden"></rect></g></svg></g></svg>