<svg xmlns="http://www.w3.org/2000/svg" version="1.1" xmlns:xlink="http://www.w3.org/1999/xlink" xmlns:svgjs="http://svgjs.dev/svgjs" width="2000" height="358" viewBox="0 0 2000 358"><g transform="matrix(1,0,0,1,-1.2121212121212466,-0.7171363222682601)"><svg viewBox="0 0 396 71" data-background-color="#ffffff" preserveAspectRatio="xMidYMid meet" height="358" width="2000" xmlns="http://www.w3.org/2000/svg" xmlns:xlink="http://www.w3.org/1999/xlink"><g id="tight-bounds" transform="matrix(1,0,0,1,0.2400000000000091,0.14222536000292507)"><svg viewBox="0 0 395.52 70.71554927999416" height="70.71554927999416" width="395.52"><g><svg viewBox="0 0 588.6089599489037 105.23818242797535" height="70.71554927999416" width="395.52"><g><rect width="6.867212660751869" height="76.5299372938605" x="168.244750794037" y="14.354122567057424" fill="#03424c" opacity="1" stroke-width="0" stroke="transparent" fill-opacity="1" class="rect-qz-0" data-fill-palette-color="primary" rx="1%" id="qz-0" data-palette-color="#03424c"></rect></g><g transform="matrix(1,0,0,1,193.08895994890372,14.544495545400359)"><svg viewBox="0 0 395.52 76.14919133717463" height="76.14919133717463" width="395.52"><g id="textblocktransform"><svg viewBox="0 0 395.52 76.14919133717463" height="76.14919133717463" width="395.52" id="textblock"><g><svg viewBox="0 0 395.52 76.14919133717463" height="76.14919133717463" width="395.52"><g transform="matrix(1,0,0,1,0,0)"><svg width="395.52" viewBox="4 -37.5 254.82 48.45" height="76.14919133717463" data-palette-color="#03424c"><g class="wordmark-text-0" data-fill-palette-color="primary" id="text-0"><path d="M11.25-34.1L11.25-3.4 14.5-3.4 14.5 0 4 0 4-3.4 7.15-3.4 7.15-34.1 4-34.1 4-37.5 14.5-37.5 14.5-34.1 11.25-34.1ZM37.8-25.5L37.8-25.5Q41.7-25.5 41.7-21.65L41.7-21.65 41.7-3.4 44.9-3.4 44.9 0 35.25 0 35.25-3.4 37.65-3.4 37.65-22 27.7-15.75 27.7-3.4 30.15-3.4 30.15 0 20.5 0 20.5-3.4 23.65-3.4 23.65-21.65 20.5-21.65 20.5-25 27.7-25 27.7-19.8 36-25Q36.8-25.5 37.8-25.5ZM47.9-25L57.1-25 57.1-21.6 54.65-21.6 59.65-3.4 64.75-21.6 62.3-21.6 62.3-25 71.55-25 71.55-21.6 68.55-21.6 62.5 0 56.95 0 50.85-21.6 47.9-21.6 47.9-25ZM75.04-3.65L75.04-20.1Q75.04-25.05 80.19-25.05L80.19-25.05 88.64-25.05Q91.09-25.05 92.19-24.1 93.29-23.15 93.29-20.6L93.29-20.6 93.29-15.95 79.04-6.95 79.04-3.4 89.34-3.4 89.34-6.3 93.29-6.3 93.29-3.65Q93.29-2.15 92.37-1.07 91.44 0 89.29 0L89.29 0 79.04 0Q76.89 0 75.97-1.07 75.04-2.15 75.04-3.65L75.04-3.65ZM79.04-21.6L79.04-11 89.29-17.45 89.29-21.6 79.04-21.6ZM115.24-7.5L115.24-4.4Q115.24 0 110.94 0L110.94 0 98.84 0 98.84-7.55 102.24-7.55 102.24-3.4 111.24-3.4 111.24-7.55 103.04-12.7Q101.79-13.5 100.89-14 99.99-14.5 99.39-15L99.39-15Q98.29-16 98.29-17.7L98.29-17.7 98.29-20.55Q98.29-22.65 98.99-23.45L98.99-23.45Q100.34-25 102.99-25L102.99-25 114.64-25 114.64-17.5 111.24-17.5 111.24-21.6 102.24-21.6 102.24-17.4 110.74-12.1Q111.79-11.45 112.62-10.98 113.44-10.5 113.99-10L113.99-10Q115.24-8.95 115.24-7.5L115.24-7.5ZM123.44-34.1L127.34-34.1 127.34-25 131.39-25 131.39-21.4 127.34-21.4 127.34-3.4 132.09-3.4 132.09 0 127.89 0Q125.64 0 124.54-1.18 123.44-2.35 123.44-5.2L123.44-5.2 123.44-21.4 119.74-21.4 119.74-25 123.44-25 123.44-34.1ZM143.34-25L143.34-3.4 146.59-3.4 146.59 0 136.09 0 136.09-3.4 139.24-3.4 139.24-21.6 136.09-21.6 136.09-25 143.34-25ZM141.28-34.2Q142.34-34.2 143.06-33.43 143.78-32.65 143.78-31.58 143.78-30.5 143.06-29.78 142.34-29.05 141.26-29.05 140.19-29.05 139.46-29.78 138.74-30.5 138.74-31.58 138.74-32.65 139.49-33.43 140.24-34.2 141.28-34.2ZM172.73-21.6L169.58-21.6 169.58 6.65Q169.58 8.75 168.56 9.85 167.53 10.95 164.98 10.95L164.98 10.95 152.88 10.95 152.88 4.15 156.28 4.15 156.28 7.5 165.48 7.5 165.48-5.55 156.93-0.15Q155.83 0.5 154.51 0.5 153.18 0.5 152.13-0.53 151.08-1.55 151.08-3.05L151.08-3.05 151.08-20.6Q151.08-23.05 151.73-23.8L151.73-23.8Q152.83-25 155.33-25L155.33-25 172.73-25 172.73-21.6ZM165.48-9.6L165.48-21.6 154.98-21.6 154.98-3 165.48-9.6ZM194.23-3.4L197.38-3.4 197.38 0 179.98 0Q177.43 0 176.53-1L176.53-1Q175.73-1.9 175.73-4.4L175.73-4.4 175.73-6.25Q175.73-8.05 176.18-8.7L176.18-8.7Q176.83-9.65 179.13-11.05L179.13-11.05 190.13-17.9 190.13-21.6 180.33-21.6 180.33-18.7 177.13-18.7 177.13-25 189.63-25Q192.18-25 193.21-23.9 194.23-22.8 194.23-20.7L194.23-20.7 194.23-3.4ZM190.13-3.4L190.13-13.9 179.73-7.4 179.73-3.4 190.13-3.4ZM205.08-34.1L208.98-34.1 208.98-25 213.03-25 213.03-21.4 208.98-21.4 208.98-3.4 213.73-3.4 213.73 0 209.53 0Q207.28 0 206.18-1.18 205.08-2.35 205.08-5.2L205.08-5.2 205.08-21.4 201.38-21.4 201.38-25 205.08-25 205.08-34.1ZM231.13 0L221.88 0Q219.33 0 218.28-1.18 217.23-2.35 217.23-4.45L217.23-4.45 217.23-20.55Q217.23-22.55 218.15-23.78 219.08-25 221.88-25L221.88-25 231.13-25Q233.88-25 234.83-23.78 235.78-22.55 235.78-20.55L235.78-20.55 235.78-4.45Q235.78-2.35 234.73-1.18 233.68 0 231.13 0L231.13 0ZM221.28-21.6L221.28-3.4 231.73-3.4 231.73-21.6 221.28-21.6ZM254.92-25L254.92-25Q258.82-25 258.82-21.15L258.82-21.15 258.82-16.7 254.77-16.7 254.77-21.55 246.97-16.6 246.97-3.4 249.42-3.4 249.42 0 239.77 0 239.77-3.4 242.92-3.4 242.92-21.65 239.77-21.65 239.77-25.05 246.97-25.05 246.97-20.65 253.12-24.5Q253.92-25 254.92-25Z" fill="#03424c" data-fill-palette-color="primary"></path></g></svg></g></svg></g></svg></g></svg></g><g><svg viewBox="0 0 150.26775429992216 105.23818242797535" height="105.23818242797535" width="150.26775429992216"><g><svg xmlns="http://www.w3.org/2000/svg" xmlns:xlink="http://www.w3.org/1999/xlink" version="1.1" x="0" y="0" viewBox="2 16.859 95.334 66.76599999999999" enable-background="new 0 0 100 100" xml:space="preserve" height="105.23818242797535" width="150.26775429992216" class="icon-icon-0" data-fill-palette-color="accent" id="icon-0"><g fill="#317185" data-fill-palette-color="accent"><path d="M71.546 26.437L71.546 26.437l-4.908-9.578H32.695l-4.908 9.578 0 0H2v56.331h30.89v-0.072c-3.427-2.495-6.281-5.729-8.316-9.476H11.548l0 0V35.985l0 0h22.075l4.908-9.578 0 0h22.271l0 0 4.909 9.578h22.074l0 0v37.234l0 0H74.759c-2.035 3.747-4.889 6.981-8.315 9.476v0.072h30.89V26.437H71.546z" fill="#317185" data-fill-palette-color="accent"></path><path d="M73.676 59.616c0-13.239-10.771-24.01-24.009-24.01-13.239 0-24.009 10.771-24.009 24.01 0 13.239 10.77 24.009 24.009 24.009C62.905 83.625 73.676 72.855 73.676 59.616zM49.667 74.077c-7.974 0-14.462-6.488-14.462-14.461s6.488-14.461 14.462-14.461c7.974 0 14.461 6.487 14.461 14.461S57.641 74.077 49.667 74.077z" fill="#317185" data-fill-palette-color="accent"></path></g></svg></g></svg></g></svg></g><defs></defs></svg><rect width="395.52" height="70.71554927999416" fill="none" stroke="none" visibility="hidden"></rect></g></svg></g></svg>